<svg width="67" height="49" viewBox="0 0 67 49" fill="none" xmlns="http://www.w3.org/2000/svg">
<path d="M0 35.9402H8.19225V26.3832L6.38264 28.1913V34.1298H1.80803V1.52588e-05L0 1.80884V35.9402Z" fill="#F2F1E2"/>
<path d="M18.0873 35.9402H19.8962V8.59765H11.7031V15.8116L13.5135 14.0036V10.4065H18.0873V16.4501L18.0407 16.4975L11.7031 22.8335V35.9402H13.5135V23.5771L13.5602 23.5305L18.0873 19.0025V35.9402Z" fill="#F2F1E2"/>
<path d="M29.7881 35.9402H31.5969V8.59765H29.3827L25.2135 12.7669V8.59765H23.4062V35.9402H25.2135V15.3201L25.2601 15.2727L29.7881 10.7447V35.9402Z" fill="#F2F1E2"/>
<path d="M35.1094 35.9402H43.3032V26.3832L41.4928 28.1913V34.1298H36.9206V7.21476H43.3032V5.40594H36.9206V1.52588e-05L35.1094 1.80884V35.9402Z" fill="#F2F1E2"/>
<path d="M58.5156 35.9402H66.7055V22.8335L60.3244 16.4501V10.4065H64.8991V14.0036L66.7055 15.8116V8.59765H58.5156V17.1945L64.8991 23.5771V34.1298H60.3244V23.4191L58.5156 25.2263V35.9402Z" fill="#F2F1E2"/>
<path d="M46.8086 35.9402H55.0024V28.7254L53.1897 30.5335V34.1298H48.6174V15.3201L48.6632 15.2727L53.1897 10.7447V20.9583L51.0655 23.0856V25.6388L55.0024 21.7027V8.59765H52.7866L48.6174 12.7669V8.59765H46.8086V35.9402Z" fill="#F2F1E2"/>
<path d="M10.5815 45.6181L8.62407 43.1629H8.29297V48.2251H8.9852V44.9472C8.9852 44.888 8.9852 44.8263 8.98125 44.7639C9.01049 44.7995 9.03815 44.839 9.06818 44.8793C9.10848 44.9378 9.15036 44.9939 9.19619 45.0484C9.32342 45.1954 9.67428 45.596 10.2488 46.2511L10.5736 46.6162L10.6146 46.5712C10.8675 46.3049 11.1575 45.9809 11.4752 45.6126C11.7415 45.3021 11.9809 45.0136 12.1856 44.756C12.1785 44.839 12.1777 44.903 12.1777 44.9472V48.2251H12.8715V43.1629H12.5396L10.5815 45.6181Z" fill="#F2F1E2"/>
<path d="M24.7106 46.2417C24.7106 46.666 24.5921 47.0121 24.359 47.2721C24.1266 47.5281 23.8113 47.6585 23.4218 47.6585C23.1689 47.6585 22.9421 47.6008 22.7509 47.4847C22.558 47.3709 22.4047 47.2034 22.2981 46.9908C22.1874 46.7774 22.1329 46.5253 22.1329 46.2417V43.2269H21.4375V46.2417C21.4375 46.6233 21.5197 46.975 21.6801 47.284C21.8405 47.5961 22.0728 47.8442 22.37 48.0212C22.6663 48.1998 23.0156 48.2891 23.4083 48.2891C23.7908 48.2891 24.1377 48.203 24.438 48.0331C24.7398 47.8632 24.9785 47.6206 25.1484 47.3108C25.3199 47.0026 25.4052 46.6423 25.4052 46.2417V43.2269H24.7106V46.2417Z" fill="#F2F1E2"/>
<path d="M33.9648 48.2252H34.6594V43.2271H33.9648V48.2252Z" fill="#F2F1E2"/>
<path d="M44.9689 42.9536L46.0531 41.9824H45.1822L44.7144 42.4107L44.2442 41.9824H43.375L44.4426 42.9536H44.9689Z" fill="#F2F1E2"/>
<path d="M46.3244 43.4898V43.2417H43.0054V43.8936H45.3255L42.9414 47.9554V48.2249H46.4682V47.5729H43.9395L46.3244 43.4898Z" fill="#F2F1E2"/>
<path d="M56.9963 46.0156H55.7501L56.3206 44.5647L56.3673 44.3996L56.4202 44.5695L56.9963 46.0156ZM56.5443 43.1257L56.5316 43.0917H56.2219L54.0898 48.225H54.8319L55.4862 46.6533H57.2697L57.9374 48.225H58.6755L56.5443 43.1257Z" fill="#F2F1E2"/>
</svg>
